<?xml version="1.0" standalone="no"?>
<!DOCTYPE svg PUBLIC "-//W3C//DTD SVG 20010904//EN"
 "http://www.w3.org/TR/2001/REC-SVG-20010904/DTD/svg10.dtd">
<svg version="1.0" xmlns="http://www.w3.org/2000/svg"
 width="864.000000pt" height="864.000000pt" viewBox="0 0 864.000000 864.000000"
 preserveAspectRatio="xMidYMid meet">
<metadata>
Created by potrace 1.11, written by Peter Selinger 2001-2013
</metadata>
<g transform="translate(0.000000,864.000000) scale(0.100000,-0.100000)"
fill="#000000" stroke="none">
<path d="M4165 8468 c-282 -7 -363 -12 -374 -23 -8 -8 -37 -58 -65 -111 -28
-54 -55 -99 -61 -100 -5 -2 -39 33 -74 77 -46 57 -69 79 -86 79 -13 0 -142
-41 -286 -91 -145 -50 -343 -118 -439 -151 -96 -33 -179 -63 -183 -68 -5 -4
-20 -68 -33 -141 -14 -73 -27 -135 -30 -138 -3 -3 -13 0 -22 5 -9 6 -54 32
-99 58 -70 41 -84 46 -103 36 -39 -21 -761 -582 -767 -596 -2 -7 2 -66 10
-131 9 -65 14 -120 11 -122 -2 -2 -48 4 -102 14 -53 9 -106 16 -117 14 -24 -5
-594 -785 -595 -814 0 -11 23 -71 51 -133 29 -62 49 -115 46 -119 -4 -3 -55
-10 -114 -14 -60 -5 -118 -11 -130 -14 -26 -6 -23 4 -148 -445 -53 -190 -103
-365 -111 -389 -8 -25 -14 -53 -14 -64 0 -10 37 -58 81 -107 45 -48 82 -91 83
-96 0 -4 -42 -26 -94 -49 l-95 -41 3 -441 c2 -242 7 -464 10 -493 l7 -52 112
-62 c61 -34 115 -65 119 -69 4 -4 -30 -43 -77 -86 l-84 -78 14 -49 c24 -87 27
-83 -79 -111 -61 -15 -101 -31 -112 -44 -21 -24 -35 16 161 -444 77 -181 137
-332 133 -335 -4 -4 -115 -53 -247 -110 -132 -56 -246 -107 -252 -112 -7 -6
-13 -17 -13 -26 0 -8 114 -249 253 -535 320 -663 329 -679 347 -690 17 -10 11
-12 692 309 191 90 352 164 358 164 14 0 13 -4 -15 -124 -14 -58 -22 -111 -19
-118 8 -20 749 -583 772 -586 11 -2 66 20 122 48 56 28 104 50 106 48 2 -2 6
-42 10 -88 8 -118 20 -157 47 -166 12 -3 214 -76 449 -161 254 -92 435 -152
446 -149 10 4 58 47 107 96 48 50 89 90 90 90 2 0 22 -47 45 -105 23 -57 48
-109 55 -115 15 -12 955 -26 971 -13 6 4 35 54 64 111 30 56 58 102 62 102 4
0 37 -35 74 -77 36 -43 72 -82 79 -86 14 -7 920 266 938 283 5 4 20 77 33 161
14 85 27 155 29 157 1 2 48 -25 104 -60 95 -58 104 -61 125 -47 12 7 181 137
374 288 291 227 352 279 352 299 0 13 -7 72 -16 129 -8 58 -13 107 -11 109 2
3 42 -5 88 -16 46 -11 99 -20 117 -20 19 0 207 -66 429 -150 234 -90 402 -148
413 -145 11 4 34 41 58 98 239 547 472 1091 472 1101 0 24 -29 39 -239 127
-175 73 -205 89 -203 105 2 10 44 158 93 328 49 170 89 313 89 317 0 15 -55
59 -112 89 -32 17 -58 37 -58 43 0 7 7 34 15 61 8 26 12 53 8 60 -4 6 -43 50
-86 99 -44 48 -78 89 -76 91 2 2 48 24 101 49 74 35 99 51 103 69 3 12 4 241
3 507 l-3 483 -97 52 c-54 28 -98 54 -98 58 0 4 38 39 85 79 47 40 88 82 90
94 5 20 -267 921 -283 937 -5 5 -58 18 -118 29 -60 11 -115 22 -121 24 -9 3 8
39 48 105 33 55 58 107 56 115 -8 19 -526 776 -546 798 -17 17 -23 17 -151 -3
-73 -11 -135 -19 -137 -17 -2 3 8 57 23 122 26 114 26 117 8 136 -11 10 -185
142 -389 294 -228 169 -379 275 -393 275 -12 0 -68 -23 -123 -51 -56 -27 -102
-49 -104 -47 -1 2 -7 52 -13 112 -7 66 -16 114 -24 123 -17 16 -892 323 -922
323 -13 0 -56 -35 -113 -92 -80 -79 -93 -89 -99 -72 -44 119 -86 219 -96 226
-15 9 -69 8 -573 -4z m563 -195 c41 -106 41 -108 23 -127 -19 -18 -20 -17 -60
62 -29 58 -48 83 -64 87 -12 3 -186 2 -387 -2 l-364 -8 -225 -407 -226 -407
-167 -61 c-156 -58 -169 -61 -203 -50 -29 9 -35 16 -33 33 3 20 8 22 58 19 46
-2 76 6 185 48 71 27 135 56 141 62 7 7 108 198 225 423 117 226 213 411 214
413 2 2 506 16 751 20 l91 2 41 -107z m744 -104 c222 -77 407 -144 412 -149 5
-5 13 -55 18 -111 8 -83 8 -103 -3 -110 -26 -17 -36 -9 -43 34 -18 113 -17
112 -119 151 -198 76 -642 236 -654 236 -7 0 -164 -142 -349 -315 l-335 -315
-172 0 c-168 0 -173 1 -210 25 -41 29 -43 33 -23 60 13 18 14 18 44 -3 28 -20
42 -22 193 -22 l163 0 331 330 c181 181 333 330 337 330 4 0 188 -63 410 -141z
m-1914 42 c54 -66 59 -76 50 -97 -6 -13 -14 -24 -17 -24 -4 0 -29 23 -56 50
-27 28 -58 50 -68 50 -31 0 -724 -229 -735 -243 -5 -6 -51 -214 -103 -460
l-93 -449 -143 -109 c-137 -105 -144 -109 -193 -109 -47 0 -50 2 -50 25 0 23
4 25 41 25 22 0 50 5 61 11 47 25 240 184 248 203 4 12 21 98 39 191 17 94 49
267 71 385 22 118 45 245 51 281 l11 65 407 142 c223 77 409 140 413 139 3 -1
33 -35 66 -76z m1071 -88 l32 -66 -29 -30 -29 -29 -31 51 c-17 27 -39 54 -49
59 -25 14 -539 20 -552 7 -5 -5 -82 -136 -172 -290 -89 -154 -187 -322 -218
-374 l-56 -94 -213 -78 c-118 -44 -223 -79 -234 -79 -11 0 -38 5 -59 12 -33 9
-38 15 -33 32 9 30 7 29 64 13 l52 -15 195 71 194 72 222 402 222 402 330 1
331 0 33 -67z m813 -135 l307 -113 10 -61 c15 -82 15 -78 -23 -97 l-34 -16
-19 57 -18 57 -250 102 c-137 56 -262 102 -276 102 -20 1 -94 -60 -344 -284
l-317 -285 -247 0 -247 0 -42 31 c-46 34 -48 37 -29 62 11 16 15 16 52 -11
l40 -29 211 -7 c200 -5 213 -5 237 14 13 11 163 150 333 310 237 223 314 289
329 286 11 -3 158 -56 327 -118z m-1937 52 l39 -40 -20 -40 -19 -40 -37 30
c-21 17 -46 32 -55 33 -26 2 -516 -143 -531 -158 -13 -12 -31 -84 -147 -584
-50 -215 -68 -278 -83 -290 -11 -9 -98 -75 -194 -148 -168 -127 -175 -131
-234 -138 -60 -6 -61 -6 -66 18 -4 21 0 26 25 31 16 3 47 6 68 6 35 0 58 14
204 127 141 108 167 132 175 162 5 20 48 220 95 446 47 225 88 412 91 415 9 9
608 208 629 209 12 1 38 -17 60 -39z m990 -46 c38 -51 40 -63 15 -89 -13 -14
-26 -25 -30 -25 -3 0 -16 18 -29 40 l-23 40 -191 -2 -192 -3 -222 -369 c-122
-204 -228 -373 -235 -377 -7 -4 -125 -48 -261 -98 l-248 -92 -67 19 c-64 18
-67 20 -64 48 2 16 5 31 7 33 3 2 35 -4 72 -14 l68 -18 250 94 250 94 215 373
215 373 228 -4 c209 -4 229 -6 242 -23z m879 -167 c115 -47 212 -91 216 -99 4
-7 11 -27 14 -44 6 -26 3 -32 -19 -42 -38 -17 -42 -16 -49 23 -4 19 -12 38
-19 42 -31 19 -352 130 -366 126 -9 -3 -158 -128 -331 -279 l-315 -274 -285 0
-286 0 -62 45 -63 46 17 29 c19 32 18 32 85 -17 l47 -33 278 0 279 1 315 284
c173 156 320 282 325 280 6 -2 104 -42 219 -88z m-1940 30 c24 -20 27 -26 18
-43 -28 -48 -28 -48 -57 -25 -15 11 -35 21 -44 21 -9 0 -92 -26 -186 -58
l-170 -57 -106 -424 -105 -423 -227 -175 -227 -174 -83 3 c-81 3 -82 3 -85 30
-3 26 -2 26 75 33 43 3 87 11 98 17 11 6 111 81 222 166 l202 155 20 86 c116
504 174 747 180 753 5 6 418 134 441 137 3 1 18 -9 34 -22z m3129 -253 c183
-136 340 -254 350 -263 17 -16 16 -22 -7 -120 -23 -100 -35 -121 -65 -121 -10
0 -12 9 -8 38 3 20 9 60 13 88 l6 52 -74 58 c-212 168 -531 410 -551 418 -18
7 -101 -28 -435 -182 l-412 -191 -170 55 c-150 49 -172 58 -195 88 -30 39 -31
52 -6 66 16 8 24 4 48 -24 24 -30 48 -41 170 -80 78 -25 148 -46 156 -46 8 0
198 92 423 204 225 113 413 205 417 205 5 1 158 -110 340 -245z m-4132 149
c72 -44 79 -51 79 -80 0 -18 -2 -33 -4 -33 -2 0 -38 16 -80 36 -75 36 -76 36
-103 19 -15 -10 -159 -117 -320 -238 -245 -183 -293 -223 -293 -244 0 -13 7
-97 15 -186 9 -89 26 -285 39 -435 l24 -273 -106 -154 c-97 -139 -111 -155
-149 -169 -24 -8 -43 -11 -43 -6 0 5 -3 15 -6 24 -4 12 6 21 37 35 38 16 56
36 134 150 l89 132 -53 465 c-29 256 -51 467 -49 469 21 21 695 535 702 535 5
0 44 -21 87 -47z m4042 -304 c144 -111 265 -205 270 -208 4 -4 2 -42 -4 -84
l-11 -77 -39 0 -39 0 0 63 0 64 -216 176 c-119 98 -225 177 -236 177 -11 0
-86 -29 -166 -64 -81 -35 -237 -103 -347 -151 -110 -48 -219 -95 -242 -105
l-41 -18 -230 74 -230 74 -36 48 c-35 47 -35 47 -15 67 20 20 20 20 31 1 37
-65 69 -83 258 -145 102 -34 192 -61 200 -61 9 0 193 83 410 184 217 101 401
185 408 185 7 1 131 -90 275 -200z m-4043 125 l57 -25 -7 -40 c-4 -22 -10 -42
-12 -45 -3 -2 -24 3 -48 11 -23 8 -51 15 -62 15 -20 0 -442 -288 -466 -319 -9
-11 -12 -35 -7 -81 3 -36 17 -229 30 -429 l24 -364 -142 -205 c-127 -183 -147
-207 -185 -223 -55 -24 -68 -24 -75 0 -4 15 7 24 53 44 55 23 61 30 171 188
63 90 118 169 122 176 4 7 -1 110 -12 230 -55 595 -61 677 -54 683 18 17 547
410 551 410 2 0 30 -12 62 -26z m3959 -279 l160 -130 0 -51 c1 -45 -2 -52 -21
-58 -43 -11 -47 -7 -50 46 l-3 51 -145 113 c-80 62 -152 113 -160 113 -8 1
-188 -71 -399 -159 -210 -88 -388 -160 -395 -160 -6 0 -128 37 -270 82 l-260
83 -45 59 c-51 65 -55 82 -25 102 19 13 24 10 65 -43 l45 -58 256 -83 c140
-45 259 -82 264 -82 5 0 86 33 179 75 626 275 598 264 622 246 12 -9 94 -74
182 -146z m-3969 84 c30 -11 32 -14 27 -47 -4 -19 -8 -36 -10 -39 -2 -2 -25 2
-49 8 l-46 13 -147 -109 c-80 -59 -149 -114 -152 -123 -5 -12 13 -428 34 -767
l5 -90 -157 -225 c-86 -124 -164 -233 -173 -242 -9 -9 -47 -28 -84 -42 l-67
-25 -6 30 c-4 17 -5 32 -3 33 1 1 32 13 66 27 l64 24 160 230 160 230 -6 60
c-3 33 -13 173 -21 310 -9 138 -20 302 -25 365 -5 63 -8 115 -7 116 15 14 392
274 397 274 4 0 22 -5 40 -11z m1412 -141 l73 -53 132 -3 133 -4 0 -644 0
-644 -72 0 -73 -1 73 -67 73 -67 -1 -124 0 -124 -72 70 c-75 72 -161 134 -235
167 l-42 19 -207 620 c-114 341 -207 627 -208 635 -1 10 39 30 119 61 66 25
126 49 132 54 6 4 31 41 55 82 24 41 44 75 46 75 1 0 35 -24 74 -52z m900 -21
l55 -73 154 -48 c85 -27 158 -52 162 -56 5 -4 -39 -153 -97 -331 -57 -178
-140 -434 -184 -569 l-79 -245 -247 -3 -246 -2 0 645 0 645 140 0 140 0 62 54
c35 30 68 55 74 55 6 1 36 -32 66 -72z m1288 -60 c13 -36 34 -56 138 -134 141
-107 127 -104 321 -73 69 10 263 40 431 65 l304 47 21 -28 c51 -71 475 -696
475 -701 0 -4 -23 -46 -52 -95 -40 -66 -58 -88 -74 -88 -11 0 -23 3 -27 6 -3
4 10 38 29 76 19 39 33 76 30 84 -11 30 -428 653 -440 657 -7 3 -214 -20 -460
-50 l-447 -54 -144 107 c-125 94 -144 112 -155 146 -6 22 -14 46 -16 52 -5 12
36 38 46 29 2 -2 12 -23 20 -46z m-140 -71 l21 -65 170 -127 170 -127 307 38
c169 20 370 45 446 54 l139 18 184 -280 c102 -154 187 -286 190 -292 2 -7 -9
-40 -26 -72 -29 -58 -30 -59 -65 -55 -41 5 -42 10 -20 74 l15 46 -148 241
c-99 162 -155 243 -169 247 -17 4 -354 -26 -746 -67 l-107 -11 -63 45 c-35 25
-121 90 -193 144 -126 95 -131 100 -152 158 -29 80 -31 74 24 94 1 1 11 -28
23 -63z m-135 -73 l26 -78 219 -163 220 -164 422 41 c336 33 423 39 430 29 4
-7 61 -98 124 -201 l117 -188 -12 -40 c-12 -38 -14 -40 -49 -37 -39 3 -40 5
-20 55 12 31 10 35 -96 194 l-108 162 -111 -7 c-62 -4 -240 -18 -397 -32 -157
-13 -301 -24 -321 -24 -30 0 -67 23 -257 166 l-221 166 -26 78 c-14 44 -25 83
-25 88 0 8 36 30 52 31 3 1 18 -34 33 -76z m-146 -81 l30 -97 140 -104 c79
-59 137 -109 134 -115 -4 -6 -117 -167 -251 -358 l-245 -348 -49 0 c-26 0 -48
-4 -48 -9 0 -6 9 -25 19 -43 l19 -33 -147 -208 -146 -208 -5 238 -5 238 -107
3 c-71 2 -108 6 -108 14 0 6 66 214 146 462 208 646 206 641 210 645 2 2 47
-9 99 -24 l96 -29 87 37 c48 20 90 36 94 36 4 1 21 -43 37 -97z m-2074 -528
c108 -328 195 -597 193 -597 -2 -1 -120 0 -263 3 l-260 5 -282 390 c-155 215
-282 393 -280 396 1 4 54 47 117 96 l115 89 22 83 c12 46 24 86 28 89 3 3 39
-4 80 -16 41 -12 83 -22 92 -22 10 1 63 18 118 40 55 21 105 39 112 39 7 1 92
-243 208 -595z m-2027 561 c40 -8 75 -15 78 -15 2 0 4 -13 4 -30 0 -27 -3 -29
-27 -25 -96 15 -122 14 -141 -3 -17 -14 -455 -595 -476 -629 -4 -7 71 -193
170 -425 l178 -412 -59 -174 c-47 -141 -64 -178 -88 -198 -28 -24 -30 -24 -49
-7 -19 17 -19 18 11 43 24 20 39 53 80 180 l50 154 -189 411 c-105 225 -190
414 -190 419 0 5 89 131 197 280 349 480 331 457 356 451 12 -3 55 -12 95 -20z
m94 -179 c4 -6 8 -25 8 -43 0 -32 0 -32 -57 -35 l-58 -3 -177 -220 c-98 -121
-178 -229 -178 -240 0 -11 70 -194 155 -407 l154 -386 -79 -233 c-44 -128 -80
-234 -80 -235 0 -1 -18 -17 -41 -35 -38 -30 -42 -31 -57 -15 -16 15 -14 19 26
54 40 35 46 48 107 226 36 105 65 199 65 209 0 11 -77 199 -171 418 l-171 399
213 285 213 284 61 -6 c33 -3 63 -11 67 -17z m22 -182 c3 -9 6 -26 6 -39 0
-21 -5 -24 -42 -27 -43 -3 -44 -4 -155 -152 -67 -88 -113 -158 -113 -171 0
-13 65 -193 145 -401 l145 -379 -92 -276 -92 -277 -53 -41 c-29 -23 -57 -41
-63 -41 -5 0 -16 10 -24 21 -14 20 -12 24 37 64 l52 43 89 264 88 263 -156
388 -156 388 155 195 c147 183 157 194 189 194 22 0 36 -6 40 -16z m4607 -137
l89 6 0 -92 0 -93 55 -78 c30 -43 55 -82 54 -87 0 -4 -56 -54 -124 -110 l-124
-103 -331 0 c-181 0 -330 3 -330 6 0 3 104 153 231 334 l231 328 80 -59 79
-59 90 7z m-3392 -278 c144 -198 261 -364 261 -370 0 -5 -162 -7 -430 -2
l-430 6 0 -67 c0 -56 -3 -67 -15 -63 -29 12 -255 168 -255 176 0 5 49 80 109
166 l110 157 -6 104 -6 104 69 0 c119 0 139 7 232 81 48 37 90 68 94 68 3 1
124 -161 267 -360z m3946 273 c5 -40 22 -71 95 -171 48 -67 90 -124 93 -127 2
-3 94 -20 203 -40 110 -19 313 -55 453 -79 140 -25 258 -48 262 -52 4 -5 58
-174 119 -378 62 -203 119 -389 126 -413 l13 -42 -85 -75 c-72 -63 -89 -73
-105 -64 -10 5 -19 13 -19 16 0 3 25 32 55 64 30 32 55 66 55 76 0 34 -207
735 -222 749 -8 8 -170 46 -383 89 -204 41 -401 82 -440 90 l-70 16 -102 144
c-94 131 -103 148 -103 189 0 42 7 53 37 55 6 1 14 -20 18 -47z m-155 -21 c0
-44 5 -66 23 -92 48 -70 228 -319 231 -319 2 0 147 -29 322 -65 175 -36 367
-75 426 -87 59 -12 112 -24 118 -28 5 -3 52 -152 104 -330 l93 -325 -46 -52
c-25 -29 -51 -53 -58 -53 -18 0 -63 22 -63 32 0 4 16 28 35 54 19 25 35 49 35
53 0 6 -99 395 -130 513 -8 26 -18 39 -38 46 -16 5 -203 49 -418 97 -214 48
-394 92 -401 97 -7 6 -73 95 -148 199 l-135 190 0 59 c0 58 3 63 43 69 4 0 7
-25 7 -58z m-150 -30 l0 -68 156 -219 c86 -120 159 -222 163 -226 3 -4 85 -25
181 -47 407 -94 567 -130 603 -136 20 -4 40 -12 43 -17 3 -5 32 -110 64 -233
l58 -224 -32 -37 -32 -37 -32 17 -33 17 30 35 c17 19 31 40 31 47 -1 30 -100
351 -113 364 -8 8 -189 57 -403 109 -214 52 -397 97 -406 100 -10 3 -89 105
-177 227 l-159 223 -7 87 -7 87 36 0 36 0 0 -69z m106 -494 l102 -142 101 -23
c56 -13 101 -25 101 -28 0 -2 -12 -47 -26 -100 l-27 -95 21 -72 c18 -59 19
-74 8 -82 -24 -18 -446 -188 -452 -182 -3 3 -17 59 -31 123 -29 141 -80 312
-129 436 l-36 90 38 32 c21 17 79 66 129 108 49 42 92 77 95 77 3 0 51 -64
106 -142z m-5666 -33 c0 -7 -34 -17 -80 -24 -45 -7 -89 -20 -100 -29 -22 -19
-213 -644 -214 -702 -1 -34 17 -56 283 -348 156 -171 291 -321 301 -334 15
-19 19 -52 25 -202 6 -178 6 -180 -17 -208 -21 -25 -25 -27 -42 -14 -19 14
-19 15 3 52 21 36 22 44 15 188 -7 148 -7 150 -38 186 -29 34 -385 408 -543
571 -69 72 -73 77 -64 105 6 17 51 176 101 355 50 179 97 348 105 376 l15 51
102 7 c57 4 107 11 113 17 9 9 34 -24 35 -47z m1153 -185 c83 -56 154 -103
155 -105 10 -8 -10 -710 -21 -720 -3 -4 -109 21 -234 56 -125 34 -264 71 -308
82 -44 12 -82 23 -84 24 -1 2 27 92 63 201 l66 198 -30 78 c-17 43 -28 81 -26
86 3 4 43 22 90 40 82 31 85 34 126 96 23 36 44 65 46 65 3 0 73 -46 157 -101z
m-1089 55 c9 -20 16 -38 14 -39 -2 -1 -32 -11 -68 -21 l-65 -19 -87 -259 c-49
-143 -84 -264 -80 -272 4 -7 126 -149 271 -316 146 -167 270 -310 277 -318 9
-10 16 -91 24 -254 l10 -238 -27 -44 c-29 -45 -39 -49 -56 -23 -7 10 -1 28 19
60 l29 45 -8 199 c-6 136 -13 206 -22 220 -7 11 -143 163 -303 338 -274 300
-290 320 -281 345 5 15 47 155 93 311 47 155 87 286 90 289 5 5 112 28 142 31
6 1 18 -15 28 -35z m4453 -81 c36 -80 78 -211 87 -268 l5 -40 -142 -118 -142
-117 -90 2 -90 3 -3 63 c-2 47 1 71 14 90 55 86 317 452 324 452 4 0 21 -30
37 -67z m686 -78 c84 -291 117 -500 124 -800 9 -372 -27 -643 -133 -992 l-25
-83 -266 0 c-249 0 -265 1 -258 18 84 201 155 505 155 664 l0 38 -400 0 -400
0 -1 -22 c-1 -13 -5 -150 -8 -305 l-6 -281 -255 219 c-140 121 -263 228 -273
238 -18 17 -17 21 37 117 143 252 220 558 201 799 -9 124 -46 291 -89 406 -20
53 -36 100 -36 103 0 3 85 6 190 6 l190 0 2 -382 3 -383 410 -7 c226 -3 412
-4 414 -2 4 4 -25 260 -70 612 -10 84 -19 157 -19 163 0 6 87 8 237 7 l238 -3
38 -130z m914 91 c2 -1 -7 -37 -18 -79 l-21 -76 78 -253 c42 -139 84 -261 93
-270 9 -9 167 -107 351 -219 184 -111 336 -202 337 -203 0 -1 -4 -111 -10
-245 l-12 -243 -31 -24 -30 -24 -28 29 -28 29 31 18 c17 10 33 25 35 34 3 8 6
97 8 197 2 152 0 185 -12 197 -8 8 -165 109 -349 224 l-334 209 -84 269 -83
269 21 80 c12 44 24 83 26 88 3 5 50 0 60 -7z m-3297 -53 c146 -59 269 -158
337 -274 37 -62 73 -190 73 -258 -1 -140 -58 -270 -167 -378 -59 -59 -90 -81
-172 -120 -56 -27 -101 -51 -101 -54 0 -3 112 -190 250 -415 l249 -409 -297
-3 c-163 -1 -301 -1 -307 2 -6 2 -103 195 -215 430 l-205 426 -247 0 c-137 0
-248 -3 -248 -6 0 -4 59 -177 130 -386 72 -209 130 -384 130 -389 0 -12 -607
-12 -615 0 -3 5 4 315 14 688 11 373 23 792 27 932 l7 254 646 -7 646 -8 65
-25z m601 -85 c56 -93 96 -199 115 -310 26 -152 18 -208 -70 -483 -101 -316
-106 -330 -117 -314 -5 8 -9 100 -9 205 0 167 3 198 20 250 46 130 45 298 -1
418 -16 42 -19 77 -19 201 l0 150 21 -25 c11 -14 38 -55 60 -92z m2832 106 c3
-3 -1 -27 -9 -52 -7 -26 -14 -58 -14 -71 0 -23 104 -371 120 -400 4 -7 173
-109 376 -226 l369 -212 -3 -319 c-2 -175 -5 -335 -8 -354 -4 -29 -14 -40 -57
-67 l-52 -32 -30 30 -30 30 30 22 c69 51 66 33 81 453 l7 180 -354 214 c-195
117 -355 214 -357 215 -6 4 -142 452 -142 468 0 11 7 43 16 73 11 39 20 54 33
54 10 0 20 -3 24 -6z m-6117 -59 c17 -42 17 -45 2 -45 -42 0 -86 -22 -96 -48
-22 -56 -92 -299 -92 -320 0 -13 36 -64 88 -124 48 -57 164 -193 256 -303 93
-110 176 -208 184 -218 12 -14 18 -75 28 -294 l13 -276 -36 -59 c-38 -61 -46
-66 -77 -43 -18 14 -18 17 19 72 l39 58 -12 264 c-9 196 -15 270 -26 285 -8
12 -134 157 -279 323 l-266 303 73 217 73 218 39 12 c55 16 53 17 70 -22z
m6262 20 c1 -1 -3 -22 -9 -46 -11 -41 -9 -54 34 -193 26 -82 50 -153 54 -157
5 -4 182 -101 396 -215 l387 -209 0 -448 0 -448 -92 -44 c-85 -40 -94 -42
-110 -28 -10 9 -18 19 -18 22 0 4 29 24 65 45 35 20 66 45 69 54 3 9 8 190 12
402 6 361 6 386 -11 400 -10 8 -182 110 -383 225 l-365 210 -53 172 -53 172
15 51 c13 45 18 50 37 44 12 -3 23 -8 25 -9z m-391 -382 c12 -38 38 -121 58
-185 l36 -118 70 -45 c38 -24 69 -49 69 -55 0 -6 -20 -41 -45 -78 -45 -67 -45
-67 -45 -155 0 -61 -4 -89 -12 -92 -7 -2 -123 -11 -258 -19 -135 -9 -274 -19
-309 -22 l-64 -6 8 47 c9 64 7 433 -4 520 -5 39 -5 73 -2 77 8 9 450 195 467
197 5 0 20 -29 31 -66z m-1391 -89 c-4 -10 -26 -14 -82 -14 -41 0 -74 4 -72 9
2 5 37 37 78 71 l75 63 3 -58 c2 -32 1 -64 -2 -71z m-3746 -245 c124 -34 269
-73 323 -87 l97 -26 0 -50 c-1 -140 -19 -548 -24 -554 -5 -4 -647 -52 -653
-48 -1 1 -7 96 -13 210 l-10 209 -70 83 -70 83 69 56 c63 51 72 63 91 121 12
35 25 64 28 64 4 0 109 -27 232 -61z m-1194 -110 c10 -12 15 -24 9 -26 -5 -2
-35 -19 -65 -37 l-55 -32 -3 -375 c-1 -206 0 -384 3 -395 3 -16 102 -79 370
-234 200 -117 372 -218 382 -226 16 -12 14 -13 -21 -14 -32 0 -104 36 -416
207 l-378 208 -6 260 c-3 143 -9 339 -12 436 l-6 175 83 36 c46 20 87 36 90
37 3 1 14 -9 25 -20z m6675 -19 c26 -14 24 -23 -17 -91 l-37 -59 5 -273 4
-273 224 -264 c123 -146 230 -273 239 -283 15 -17 13 -18 -21 -15 -35 3 -49
17 -266 283 l-229 279 -7 286 -7 287 42 66 c22 37 43 67 46 67 2 0 13 -5 24
-10z m-6556 -100 l29 -30 -23 -16 c-12 -9 -33 -26 -46 -37 l-24 -22 -3 -280
-3 -280 360 -221 360 -222 22 -56 c12 -31 18 -58 14 -60 -12 -8 -31 9 -49 44
-14 27 -80 69 -392 250 l-375 218 -3 344 -2 343 47 26 c27 15 51 27 54 28 3 0
18 -13 34 -29z m6683 -30 c-43 -71 -44 -78 -40 -290 l4 -205 283 -320 283
-320 -34 -3 c-18 -2 -42 2 -53 7 -11 6 -131 143 -268 303 l-248 293 -3 250 -2
250 30 48 c27 42 32 46 50 35 19 -12 19 -13 -2 -48z m-3250 -77 c12 -37 20
-68 18 -70 -2 -2 -20 21 -41 51 -32 46 -36 58 -25 71 7 8 15 15 19 15 4 0 17
-30 29 -67z m3392 29 c0 -4 -9 -20 -20 -37 -18 -27 -20 -47 -20 -192 l0 -163
314 -336 314 -336 -11 -34 c-7 -23 -15 -33 -25 -29 -7 3 -19 5 -26 5 -6 0 -16
13 -21 30 -6 16 -138 174 -295 351 l-285 322 -6 185 c-7 185 -7 186 17 224 21
33 27 37 44 28 11 -6 20 -14 20 -18z m-6717 -108 l-36 -34 7 -77 c3 -42 6
-124 6 -183 l0 -106 355 -225 354 -224 35 -102 c34 -102 34 -103 13 -103 -35
0 -42 10 -71 95 -14 44 -30 85 -34 91 -4 6 -149 98 -322 204 -173 105 -333
203 -354 217 l-39 25 7 232 7 231 26 23 26 23 28 -27 28 -27 -36 -33z m3241
13 c15 -21 26 -40 24 -42 -4 -4 -71 37 -92 56 -6 6 -2 15 10 23 10 8 21 12 25
8 3 -4 18 -24 33 -45z m-72 -78 c43 -28 78 -53 78 -54 0 -6 -115 27 -125 35
-16 13 -47 70 -39 70 4 0 43 -23 86 -51z m3079 -185 c3 -104 6 -190 7 -191 10
-8 122 -149 121 -153 0 -3 -35 -32 -77 -65 l-77 -60 -31 -95 c-26 -80 -34 -94
-50 -92 -31 6 -678 182 -682 186 -2 2 8 40 22 85 37 116 71 257 97 401 12 69
24 127 26 130 4 5 610 49 628 45 6 -1 12 -77 16 -191z m-3935 102 c19 -41 34
-79 34 -85 0 -6 -21 -11 -47 -11 -27 0 -71 -3 -99 -6 l-50 -6 -29 78 c-15 44
-30 85 -33 92 -3 9 19 12 93 12 l96 0 35 -74z m2358 -133 c6 -60 -5 -208 -16
-219 -6 -5 -371 95 -381 106 -5 4 -6 47 -2 94 l7 86 193 0 193 0 6 -67z
m-2228 -162 c30 -69 51 -128 47 -132 -14 -11 -193 -82 -198 -78 -2 3 -29 76
-59 162 -39 111 -52 159 -43 162 13 5 126 12 171 11 27 -1 32 -8 82 -125z
m1047 22 c15 -49 47 -148 71 -222 25 -74 41 -130 36 -125 -4 5 -42 58 -84 119
l-76 109 0 87 c0 147 15 156 53 32z m-2129 -208 l-7 -245 202 -2 203 -3 -286
-117 c-157 -65 -298 -118 -313 -117 -16 0 -88 10 -162 22 l-134 22 -47 135
-47 135 -68 47 c-37 26 -72 49 -77 50 -6 2 13 41 42 86 48 76 52 86 48 134
l-3 53 35 3 c54 5 551 39 588 41 l33 1 -7 -245z m2560 -298 c175 -242 316
-440 314 -442 -8 -7 -332 -25 -339 -18 -8 8 -299 882 -299 898 0 11 -32 54
324 -438z m536 396 c96 -25 177 -48 179 -50 9 -7 -86 -273 -104 -291 -2 -2
-64 37 -139 87 -153 102 -141 83 -130 224 4 43 10 77 13 77 3 0 85 -21 181
-47z m-400 -297 l185 -166 8 97 c4 53 9 98 11 101 4 3 193 -120 231 -150 5 -4
120 -80 254 -168 134 -89 241 -163 238 -166 -14 -14 -648 -88 -658 -76 -11 12
-555 768 -564 783 -11 17 53 -38 295 -255z m-1481 83 c29 -68 41 -106 35 -115
-7 -10 -435 -369 -516 -432 -13 -10 -36 -9 -129 7 -157 28 -639 134 -639 141
0 3 151 67 335 143 l335 137 180 0 c203 0 193 -5 160 80 l-20 51 37 16 c21 8
67 28 103 43 36 16 67 29 70 29 3 1 25 -45 49 -100z m3888 45 c12 -19 8 -24
-49 -70 -61 -49 -62 -50 -97 -159 -33 -102 -38 -110 -63 -113 -16 -2 -28 0
-28 5 1 11 78 265 82 267 2 1 29 24 62 50 32 26 63 45 69 43 6 -2 16 -12 24
-23z m-667 -194 c184 -50 336 -93 338 -94 2 -2 -2 -22 -9 -44 l-11 -40 -102
-20 c-449 -92 -611 -124 -745 -147 l-154 -26 -230 153 -230 153 134 6 c74 4
234 7 355 8 164 1 224 4 231 14 5 6 20 40 33 75 17 48 26 61 39 58 9 -3 167
-46 351 -96z m770 61 c-1 -3 -23 -24 -51 -45 -38 -31 -53 -50 -63 -85 -9 -33
-19 -47 -34 -49 l-21 -3 22 71 c19 62 28 75 72 110 45 36 51 38 63 23 6 -9 12
-19 12 -22z m-6690 -51 c0 -4 -23 -33 -51 -65 -44 -51 -50 -63 -46 -91 5 -30
3 -32 -26 -37 -41 -6 -44 -4 -57 44 l-11 41 73 68 c65 59 76 66 95 57 13 -6
23 -13 23 -17z m6777 -49 c11 -17 9 -23 -17 -41 -19 -14 -41 -20 -62 -18 l-33
3 40 37 c46 43 55 46 72 19z m-3731 -7 c-3 -8 -70 -107 -148 -219 l-143 -204
-45 -1 c-40 0 -187 16 -338 36 -29 4 -51 10 -50 15 2 5 106 94 231 199 l229
190 135 0 c118 0 134 -2 129 -16z m247 1 c0 -5 -34 -111 -74 -234 l-72 -224
-146 8 c-80 3 -149 10 -152 13 -4 4 63 107 150 229 l156 223 70 -3 c40 -1 69
-6 68 -12z m187 -225 l0 -240 -125 0 c-69 0 -125 3 -125 6 0 4 34 112 75 240
l76 234 49 0 50 0 0 -240z m-3351 212 l30 -18 -24 -36 c-18 -27 -33 -37 -62
-41 -56 -10 -73 -8 -73 6 0 15 78 107 91 107 4 0 22 -8 38 -18z m3729 -210
c41 -123 71 -226 67 -230 -4 -4 -87 -8 -186 -10 l-179 -4 0 237 0 236 112 -3
111 -3 75 -223z m3376 77 c43 -6 108 -20 145 -31 69 -21 176 -71 185 -86 3 -5
-73 -281 -168 -613 -152 -532 -175 -604 -192 -603 -10 1 -102 12 -204 25 -151
19 -234 23 -455 23 l-270 1 -245 -42 c-905 -156 -1636 -217 -2585 -218 -788 0
-1378 40 -2080 141 -254 36 -534 31 -895 -17 -85 -12 -175 -23 -200 -26 l-45
-4 -158 313 c-137 272 -437 948 -437 984 0 16 171 57 360 85 125 20 186 23
440 23 430 0 682 -33 1295 -173 1204 -274 2593 -254 4125 60 809 166 1083 197
1384 158z m514 -971 c56 -23 73 -35 69 -47 -2 -9 -95 -225 -206 -481 -111
-256 -212 -489 -224 -518 -19 -46 -25 -52 -46 -47 -27 7 -1049 393 -1070 405
-23 13 219 85 453 135 140 30 471 85 514 85 16 0 36 8 44 18 9 9 48 132 88
272 40 140 76 265 81 277 8 22 9 22 116 -23 59 -25 141 -59 181 -76z m-7723
-281 l150 -292 175 -6 c96 -4 213 -12 260 -19 193 -27 519 -105 503 -121 -11
-10 -1164 -551 -1167 -547 -11 16 -527 1090 -524 1093 11 10 444 192 448 188
3 -2 72 -136 155 -296z m6850 -135 l40 -7 -70 -13 c-158 -29 -390 -87 -546
-138 -92 -30 -169 -54 -173 -54 -3 0 -6 44 -6 99 l0 99 103 12 c56 6 111 13
122 15 34 6 488 -5 530 -13z m-856 -139 c-2 -90 -2 -93 -9 -43 -12 81 -11 140
0 140 6 0 9 -38 9 -97z m-110 -25 c17 -161 33 -349 29 -353 -32 -28 -365 -255
-375 -255 -8 0 -27 6 -42 14 -23 12 -27 20 -23 46 6 39 13 43 53 26 42 -18 40
-19 207 107 110 84 132 104 132 126 0 14 -7 98 -15 186 -19 208 -19 205 4 205
16 0 20 -13 30 -102z m-4725 60 c8 -41 16 -118 11 -118 -2 0 -57 15 -122 34
-65 18 -167 43 -228 56 -60 12 -117 25 -125 28 -20 9 120 18 307 20 151 2 153
2 157 -20z m4576 -13 c0 -24 -3 -25 -54 -25 -53 0 -57 -2 -218 -120 -91 -65
-170 -125 -175 -132 -6 -7 -22 -78 -37 -158 -15 -80 -49 -269 -77 -420 -28
-151 -54 -284 -59 -295 -6 -16 -33 -28 -116 -52 -60 -17 -205 -59 -323 -93
l-214 -62 -49 50 -50 49 16 32 c9 17 19 31 22 31 4 0 24 -14 45 -31 34 -27 45
-30 76 -24 37 7 369 92 470 121 59 16 56 9 92 184 100 473 121 573 132 627
l13 62 174 128 c96 70 186 133 201 140 14 7 50 12 79 13 49 0 52 -1 52 -25z
m-4272 -11 c67 -9 121 -18 120 -19 -5 -5 -310 -36 -314 -32 -2 2 -7 18 -10 35
l-6 32 43 0 c24 0 99 -7 167 -16z m3917 -12 c-6 -5 -62 -47 -126 -94 l-117
-86 -10 -59 c-6 -32 -20 -101 -31 -153 -11 -52 -45 -211 -75 -354 -31 -142
-58 -261 -61 -265 -4 -3 -106 -31 -227 -62 l-221 -57 -33 25 c-33 25 -33 25
-17 58 l16 34 34 -26 34 -26 167 48 c92 26 176 53 188 60 17 11 35 79 114 428
l94 415 70 53 c52 39 83 55 116 60 69 10 95 10 85 1z m-3592 -33 c11 -7 75
-53 141 -104 117 -90 122 -95 143 -156 13 -34 22 -63 20 -64 -1 -2 -12 -6 -24
-9 -19 -6 -24 -1 -40 50 -19 63 -18 61 -207 204 -109 83 -116 90 -87 90 18 0
42 -5 54 -11z m3267 2 c0 -5 -6 -11 -14 -14 -9 -4 -22 -38 -32 -86 -9 -44 -20
-85 -24 -91 -4 -7 -31 -2 -80 15 -40 14 -83 25 -95 25 -11 0 -88 -22 -170 -50
-82 -27 -149 -49 -150 -47 -7 9 -64 191 -61 195 2 2 134 14 293 28 158 13 295
26 303 28 26 7 30 6 30 -3z m-2926 -59 c42 -32 52 -48 77 -116 16 -44 29 -83
29 -87 0 -4 -12 -11 -27 -17 -28 -9 -28 -8 -54 62 -26 72 -45 93 -154 173
l-30 22 55 1 c48 0 61 -5 104 -38z m434 2 c72 -4 132 -10 132 -13 0 -3 -9 -33
-19 -66 -21 -66 -28 -69 -100 -39 -49 21 -70 18 -165 -22 -48 -20 -88 -35 -90
-33 -6 6 -66 175 -66 184 0 4 39 5 88 2 48 -4 147 -10 220 -13z m1816 -105
c20 -62 35 -113 34 -114 -2 -1 -41 -15 -88 -30 -47 -15 -90 -32 -97 -37 -7 -5
-33 -45 -58 -89 -26 -43 -49 -79 -51 -79 -2 0 -39 26 -82 58 l-77 57 -210 5
-210 5 -3 151 -3 151 273 8 c229 6 448 16 519 23 13 2 26 -25 53 -109z m-2585
-14 c122 -93 139 -110 152 -148 18 -56 17 -58 -8 -68 -19 -7 -23 -3 -36 34
-11 35 -29 54 -108 115 -52 39 -111 84 -131 98 l-37 26 -180 -26 c-212 -31
-207 -30 -187 -10 9 8 16 24 16 35 0 14 7 19 28 20 15 0 95 8 177 18 83 11
156 17 163 15 7 -2 75 -51 151 -109z m1479 95 l182 0 0 -150 0 -150 -54 0
c-53 0 -58 -3 -124 -60 l-69 -59 -59 76 -59 77 -177 59 c-98 32 -178 63 -178
69 0 5 10 42 21 80 l22 71 156 -6 c86 -4 238 -7 339 -7z m2476 -6 c14 -36 7
-44 -39 -44 -40 0 -56 -8 -167 -91 -68 -50 -126 -96 -129 -102 -4 -7 -39 -217
-79 -467 -40 -250 -74 -456 -75 -457 -3 -5 -810 -253 -821 -253 -6 0 -41 36
-78 80 -59 70 -66 82 -56 100 11 21 14 19 70 -34 32 -31 61 -56 65 -56 8 0
612 176 692 201 69 23 72 27 93 149 10 57 47 255 124 662 l22 118 139 104
c130 97 143 105 186 106 34 0 49 -4 53 -16z m273 -34 c26 -1 35 -26 48 -135 8
-66 15 -129 15 -142 0 -18 -54 -63 -261 -219 l-262 -196 -58 28 c-53 25 -59
31 -59 58 0 53 10 58 69 36 29 -11 58 -17 64 -14 7 4 108 75 226 158 l213 151
-5 95 c-4 52 -9 124 -12 160 -4 48 -3 59 4 43 6 -13 14 -23 18 -23z m167 -61
c26 -12 25 -9 52 -186 9 -61 14 -118 11 -126 -4 -11 -593 -475 -643 -507 -17
-10 -32 -4 -107 42 -79 48 -86 55 -81 78 3 14 7 26 8 27 1 2 36 -13 76 -33 64
-32 76 -35 94 -24 56 35 584 441 588 452 3 7 -2 75 -11 151 -9 75 -16 137 -14
137 1 0 13 -5 27 -11z m-4752 -107 l-4 -48 134 -106 c73 -58 143 -111 154
-118 26 -16 1 -25 462 168 l334 141 260 -88 261 -87 48 -66 48 -66 -25 -23
c-13 -12 -25 -21 -27 -18 -2 2 -22 29 -45 59 l-41 55 -248 83 c-137 45 -254
82 -261 82 -7 0 -182 -74 -389 -165 l-376 -164 -176 148 -176 148 -3 48 c-3
52 6 65 48 65 24 0 25 -3 22 -48z m3516 -11 c2 -7 1 -22 -2 -35 l-6 -24 -69
20 -69 20 -248 -82 c-137 -45 -256 -90 -265 -99 -9 -9 -107 -175 -219 -370
l-204 -354 -120 7 c-67 3 -171 9 -232 12 l-110 7 -27 41 -26 41 25 25 c25 24
26 24 37 6 40 -63 30 -61 223 -66 109 -3 186 -1 198 5 11 6 38 42 61 80 23 39
116 194 205 345 90 151 170 282 177 290 7 8 129 54 270 101 l257 85 70 -22
c39 -12 72 -27 74 -33z m-3685 -21 c-6 -60 -6 -61 34 -98 100 -95 393 -332
410 -332 11 0 163 63 339 141 175 77 347 152 380 166 l62 26 218 -74 c226 -76
249 -88 285 -155 11 -21 10 -27 -4 -41 -16 -16 -18 -16 -34 7 -48 69 -65 78
-247 140 -99 33 -188 60 -199 60 -11 0 -196 -82 -410 -181 -349 -162 -393
-180 -411 -169 -12 7 -133 101 -269 209 l-249 196 7 55 c11 92 14 98 48 103
18 2 35 5 39 5 3 1 4 -25 1 -58z m-176 3 c-3 -16 -9 -55 -12 -89 l-7 -61 288
-228 c159 -126 301 -235 315 -244 25 -14 34 -11 215 74 430 200 502 233 561
260 l63 28 162 -55 c146 -49 165 -58 192 -92 l30 -37 -20 -20 -21 -20 -26 35
c-24 31 -43 40 -166 80 -77 26 -146 46 -154 46 -8 0 -198 -90 -422 -200 -242
-119 -412 -197 -419 -192 -7 4 -162 121 -344 261 -234 179 -331 259 -328 270
3 9 14 60 27 114 20 91 23 97 46 97 22 0 25 -3 20 -27z m3780 -120 c46 -14 52
-19 47 -37 -9 -30 -7 -29 -67 -12 l-54 16 -198 -68 -198 -67 -213 -390 -213
-390 -73 -3 c-40 -1 -192 1 -338 5 l-265 8 -35 67 -35 68 27 27 c15 15 29 25
31 22 2 -2 18 -25 35 -50 38 -56 24 -53 355 -70 204 -11 240 -11 251 2 11 11
308 520 406 696 23 42 26 43 164 90 78 26 177 59 221 74 98 33 87 33 152 12z
m-911 -75 c21 -15 54 -40 73 -56 34 -28 34 -28 16 -55 l-18 -27 -31 23 c-104
78 -67 71 -365 75 l-269 4 -43 -39 c-24 -22 -164 -148 -311 -281 -147 -133
-269 -242 -273 -242 -3 0 -100 39 -216 87 -156 64 -213 92 -219 107 -22 61
-22 64 9 80 39 21 38 21 45 -18 4 -19 12 -38 19 -44 18 -15 327 -132 348 -132
10 0 159 124 331 275 l313 275 276 -3 276 -2 39 -27z m914 -83 c15 -9 12 -55
-3 -55 -6 0 -27 4 -45 9 -28 8 -54 3 -174 -39 -78 -27 -149 -57 -158 -67 -10
-10 -93 -166 -185 -348 -227 -447 -244 -478 -262 -471 -8 3 -200 6 -426 6
l-412 0 -44 106 c-40 97 -42 107 -27 122 19 19 17 21 64 -64 l37 -69 83 -6
c46 -4 222 -10 392 -14 l309 -7 21 34 c12 18 112 200 223 403 l202 370 150 52
c123 43 159 52 198 48 26 -2 52 -7 57 -10z m-956 -92 c28 -20 54 -39 58 -43 4
-3 1 -16 -8 -28 l-15 -22 -53 40 -53 40 -209 0 -209 0 -156 -148 c-86 -81
-231 -218 -322 -305 l-165 -158 -309 117 c-169 65 -313 121 -319 126 -7 5 -15
30 -18 56 -4 26 -9 55 -12 64 -3 12 5 22 25 32 17 9 34 16 39 16 4 0 14 -22
21 -49 7 -28 18 -54 24 -58 26 -19 508 -214 521 -211 8 2 155 130 326 286
l312 282 235 0 235 0 52 -37z m-58 -143 c49 -34 50 -37 29 -64 -14 -18 -16
-18 -52 10 -38 29 -39 29 -197 32 l-159 3 -331 -329 -331 -329 -405 147 -405
147 -9 107 c-7 88 -6 110 5 117 28 18 36 7 47 -62 6 -40 17 -78 24 -85 18 -18
691 -274 721 -274 17 0 108 81 343 305 l319 304 178 1 178 0 45 -30z"/>
<path d="M2787 5394 c-4 -4 -7 -126 -7 -271 l0 -263 293 0 c170 0 308 4 329
10 21 6 57 25 80 43 159 122 138 367 -39 453 l-58 29 -295 3 c-163 2 -299 0
-303 -4z m606 -147 c88 -58 88 -180 1 -238 -26 -17 -50 -19 -256 -19 l-228 0
0 133 c0 74 3 137 7 141 4 4 107 6 228 4 193 -3 224 -5 248 -21z"/>
<path d="M5711 3024 c-250 -35 -456 -66 -458 -68 -5 -4 126 -968 132 -974 1
-2 73 5 159 14 146 16 156 19 156 38 0 12 -5 69 -12 129 -6 59 -9 109 -7 111
2 2 132 18 289 35 157 17 302 36 323 42 51 14 111 70 141 132 74 152 43 383
-69 514 -40 48 -125 93 -169 92 -17 0 -235 -30 -485 -65z m436 -237 c32 -36
40 -63 34 -127 -3 -30 -44 -76 -75 -84 -38 -9 -438 -66 -466 -66 l-28 0 -12
113 c-7 62 -11 120 -8 128 6 18 387 79 467 75 48 -3 58 -7 88 -39z"/>
<path d="M2279 3018 c-5 -13 -84 -980 -80 -984 2 -2 73 -4 157 -4 l152 0 6 83
c4 45 13 181 21 301 8 121 16 221 18 222 2 2 70 -136 152 -307 82 -171 155
-319 163 -330 12 -17 26 -19 125 -19 l112 0 200 286 c110 157 203 288 207 290
10 7 10 11 -7 -330 -8 -159 -13 -291 -12 -293 5 -4 299 -24 303 -20 8 8 65
980 57 987 -7 6 -454 33 -458 27 -1 -1 -84 -123 -184 -272 -100 -148 -185
-271 -189 -272 -4 -2 -67 135 -141 303 -100 227 -140 308 -155 314 -21 7 -445
25 -447 18z"/>
<path d="M4960 2951 l-105 -6 4 -321 c3 -354 1 -369 -57 -393 -17 -7 -118 -16
-238 -20 -228 -10 -237 -8 -279 47 -18 25 -21 48 -26 262 -4 129 -7 272 -8
318 l-1 82 -160 0 -160 0 6 -72 c2 -40 11 -208 19 -373 15 -328 19 -349 82
-439 55 -77 92 -90 273 -94 85 -2 265 1 400 6 283 10 316 18 393 101 78 83 78
84 75 521 l-3 385 -55 1 c-30 0 -102 -2 -160 -5z"/>
</g>
</svg>
